<!DOCTYPE svg PUBLIC "-//W3C//DTD SVG 1.1//EN" "http://www.w3.org/Graphics/SVG/1.1/DTD/svg11.dtd">
<!-- Uploaded to: SVG Repo, www.svgrepo.com, Transformed by: SVG Repo Mixer Tools -->
<svg fill="#e090db" height="100px" width="100px" version="1.1" id="Layer_1" xmlns="http://www.w3.org/2000/svg" xmlns:xlink="http://www.w3.org/1999/xlink" viewBox="0 0 512 512" xml:space="preserve" transform="rotate(-45)">

<g id="SVGRepo_bgCarrier" stroke-width="0"/>

<g id="SVGRepo_tracerCarrier" stroke-linecap="round" stroke-linejoin="round"/>

<g id="SVGRepo_iconCarrier"> <g> <g> <path d="M487.489,272.34h-8.886c0.48-3.795,0.729-7.66,0.729-11.569c0-48.387-39.317-87.755-87.645-87.755 c-1.531,0-3.089,0.044-4.665,0.13c-16.245-23.86-43.606-38.484-72.609-38.484c-8.401,0-16.604,1.184-24.523,3.475V84.426 c0-4.512-3.657-8.17-8.17-8.17c-37.8,0-71.046,19.854-89.872,49.678V8.17c0-4.512-3.657-8.17-8.17-8.17h-32.681 c-4.513,0-8.17,3.658-8.17,8.17v136.333c0,4.512,3.657,8.17,8.17,8.17s8.17-3.658,8.17-8.17V16.34h16.34v156.943 c-9.896-2.881-20.354-4.433-31.167-4.433c-6.076,0-12.039,0.496-17.855,1.434V8.17c0-4.512-3.657-8.17-8.17-8.17H85.636 c-4.513,0-8.17,3.658-8.17,8.17v149.49c0,4.512,3.657,8.17,8.17,8.17c4.513,0,8.17-3.658,8.17-8.17V16.34h16.34v157.874 c-42.409,13.675-73.818,52.067-77.165,98.126h-8.471C10.996,272.34,0,283.335,0,296.851s10.996,24.511,24.511,24.511h8.351 C37.164,427.211,124.603,512,231.489,512h49.021c106.886,0,194.326-84.789,198.628-190.638h8.351 c13.515,0,24.511-10.995,24.511-24.511S501.004,272.34,487.489,272.34z M289.89,155.312c7.828-2.845,16.051-4.308,24.523-4.308 c25.007,0,48.519,13.364,61.359,34.878c1.642,2.75,4.731,4.283,7.92,3.933c2.73-0.304,5.421-0.458,7.996-0.458 c39.317,0,71.304,32.036,71.304,71.414c0,3.934-0.3,7.804-0.886,11.569h-73.789l27.491-27.491c3.191-3.191,3.191-8.364,0-11.554 c-3.192-3.191-8.364-3.191-11.555,0l-39.046,39.045h-42.623v-78.56c0-4.512-3.657-8.17-8.17-8.17s-8.17,3.658-8.17,8.17v78.56 H289.89V155.312z M273.55,92.964v16.438c-30.113,3.345-55.435,24.955-63.081,54.86c-1.117,4.372,1.521,8.822,5.892,9.939 c0.679,0.174,1.36,0.257,2.028,0.257c3.644,0,6.966-2.457,7.911-6.149c5.791-22.657,24.629-39.191,47.249-42.439v146.47h-17.85 c-2.984-41.064-28.273-76.034-63.777-92.828C193.402,134.054,228.777,97.015,273.55,92.964z M144.34,185.192 c49.807,0,90.807,38.401,94.965,87.149h-16.409c-4.101-39.725-37.766-70.809-78.557-70.809c-14.635,0-28.936,4.043-41.358,11.692 c-3.842,2.366-5.039,7.399-2.673,11.241c2.366,3.842,7.4,5.037,11.241,2.673c9.845-6.061,21.183-9.266,32.79-9.266 c31.769,0,58.07,23.779,62.088,54.468h-16.527c-3.872-21.643-22.821-38.128-45.562-38.128c-22.74,0-41.69,16.484-45.561,38.128 H82.241c1.15-8.774,4.141-17.216,8.828-24.777c2.378-3.835,1.197-8.872-2.638-11.249c-3.833-2.378-8.872-1.198-11.249,2.638 c-6.294,10.151-10.172,21.56-11.398,33.387H49.375C53.533,223.593,94.534,185.192,144.34,185.192z M173.156,272.34h-57.632 c3.567-12.558,15.13-21.787,28.816-21.787C158.026,250.553,169.59,259.782,173.156,272.34z M487.489,305.021H106.213 c-4.513,0-8.17,3.658-8.17,8.17c0,4.512,3.657,8.17,8.17,8.17h356.574c-4.29,96.836-84.403,174.298-182.276,174.298h-49.021 c-97.874,0-177.986-77.462-182.276-174.298h24.319c4.513,0,8.17-3.658,8.17-8.17c0-4.512-3.657-8.17-8.17-8.17H24.511 c-4.506,0-8.17-3.665-8.17-8.17c0-4.506,3.665-8.17,8.17-8.17h444.237c0.075,0,18.741,0,18.741,0c4.506,0,8.17,3.665,8.17,8.17 C495.66,301.357,491.995,305.021,487.489,305.021z"/> </g> </g> </g>

</svg>